<?xml version="1.0" encoding="UTF-8"?>
<!DOCTYPE svg PUBLIC "-//W3C//DTD SVG 1.1//EN" "http://www.w3.org/Graphics/SVG/1.1/DTD/svg11.dtd">
<svg version="1.1" xmlns="http://www.w3.org/2000/svg" xmlns:xlink="http://www.w3.org/1999/xlink" x="0px" y="0px" width="128" height="128" viewBox="0, 0, 128, 128">
  <g id="Background">
    <rect x="0" y="0" width="128" height="128" fill="#000000" fill-opacity="0"/>
  </g>
  <g id="Background">
    <path d="M18.093,6 L109.907,6 C116.561,6 122,11.439 122,18.093 L122,109.907 C122,116.561 116.561,122 109.907,122 L18.093,122 C11.439,122 6,116.561 6,109.907 L6,18.093 C6,11.439 11.439,6 18.093,6" fill="#727272"/>
    <path d="M33.548,64.827 L38.01,64.827 L38.01,56.637 L33.548,56.637 C31.091,56.637 29.081,54.623 29.081,52.166 L29.081,44.691 C29.081,42.229 31.091,40.22 33.548,40.22 L68.384,40.22 C70.841,40.22 72.851,42.229 72.851,44.691 L72.851,52.166 C72.851,54.623 70.841,56.637 68.384,56.637 L63.923,56.637 L63.923,64.827 L68.384,64.827 C70.841,64.827 72.851,66.84 72.851,69.293 L72.851,109.875 C72.851,112.332 70.838,114.346 68.384,114.346 L33.548,114.346 C31.095,114.346 29.081,112.337 29.081,109.875 L29.081,69.293 C29.081,66.836 31.091,64.827 33.548,64.827" fill="#84D0F4"/>
    <path d="M49.801,20.408 L50.911,20.408 C55.35,20.408 59.123,23.377 60.346,27.423 C59.424,28.391 54.456,35.169 53.455,36.302 L39.951,36.302 L39.951,30.258 C39.951,24.839 44.38,20.408 49.801,20.408" fill="#EBECEC"/>
    <path d="M57.949,36.498 C72.568,17.663 82.094,15.85 102.788,14.984 C106.674,14.818 109.317,16.778 109.18,21.048 L109.039,36.854 L109.003,39.914 L109.098,42.197 C102.38,38.279 88.963,35.607 73.517,35.607 C67.992,35.607 62.726,35.954 57.936,36.571 C57.926,36.543 57.931,36.521 57.949,36.498" fill="#EBECEC"/>
    <path d="M28.51,78.062 L58.205,78.062 L58.205,106.943 L28.51,106.943 z" fill="#727272"/>
    <path d="M45.572,102.23 L43.134,97.598 L40.658,102.23 L33.009,102.23 L39.115,93.145 L33.26,84.355 L40.872,84.355 L43.097,88.88 L45.321,84.355 L52.97,84.355 L47.085,93.145 L53.254,102.23 z" fill="#EBECEC"/>
    <path d="M34.38,56.632 L68.595,56.632 L68.595,60.112 L34.38,60.112 z" fill="#727272"/>
  </g>
  <defs/>
</svg>
